<svg aria-hidden="true" style="position: absolute; width: 0; height: 0; overflow: hidden;" version="1.1" xmlns="http://www.w3.org/2000/svg" xmlns:xlink="http://www.w3.org/1999/xlink">
<defs>
<symbol id="icon-how_hous" viewBox="0 0 32 32">
<path fill="#d80000" style="fill: var(--color1, #d80000)" d="M16 7.587l6.667 6v10.413h-2.667v-8h-8v8h-2.667v-10.413l6.667-6zM16 4l-13.333 12h4v10.667h8v-8h2.667v8h8v-10.667h4l-13.333-12z"></path>
</symbol>
<symbol id="icon-how_payments" viewBox="0 0 32 32">
<path fill="#d80000" style="fill: var(--color1, #d80000)" d="M25.333 18.667v-10.667c0-1.467-1.2-2.667-2.667-2.667h-18.667c-1.467 0-2.667 1.2-2.667 2.667v10.667c0 1.467 1.2 2.667 2.667 2.667h18.667c1.467 0 2.667-1.2 2.667-2.667zM22.667 18.667h-18.667v-10.667h18.667v10.667zM13.333 9.333c-2.213 0-4 1.787-4 4s1.787 4 4 4 4-1.787 4-4c0-2.213-1.787-4-4-4zM30.667 9.333v14.667c0 1.467-1.2 2.667-2.667 2.667h-22.667c0-1.333 0-1.2 0-2.667h22.667v-14.667c1.467 0 1.333 0 2.667 0z"></path>
</symbol>
<symbol id="icon-how_timer" viewBox="0 0 32 32">
<path fill="#d80000" style="fill: var(--color1, #d80000)" d="M20.093 1.347h-8v2.667h8v-2.667zM14.76 18.68h2.667v-8h-2.667v8zM25.467 9.853l1.893-1.893c-0.573-0.68-1.2-1.32-1.88-1.88l-1.893 1.893c-2.067-1.653-4.667-2.64-7.493-2.64-6.627 0-12 5.373-12 12s5.36 12 12 12c6.64 0 12-5.373 12-12 0-2.813-0.987-5.413-2.627-7.48zM16.093 26.68c-5.16 0-9.333-4.173-9.333-9.333s4.173-9.333 9.333-9.333c5.16 0 9.333 4.173 9.333 9.333s-4.173 9.333-9.333 9.333z"></path>
</symbol>
<symbol id="icon-happy" viewBox="0 0 32 32">
<path d="M16-0.034c-8.841 0-16.035 7.192-16.035 16.034s7.194 16.034 16.035 16.034 16.035-7.192 16.035-16.034-7.194-16.034-16.035-16.034zM16 30.966c-8.252 0-14.965-6.714-14.965-14.966s6.713-14.966 14.965-14.966 14.965 6.714 14.965 14.966-6.713 14.966-14.965 14.966zM10.5 16.5c1.103 0 2-0.897 2-2s-0.897-2-2-2-2 0.897-2 2 0.897 2 2 2zM10.5 13.5c0.551 0 1 0.448 1 1s-0.449 1-1 1-1-0.448-1-1 0.449-1 1-1zM21.5 16.5c1.103 0 2-0.897 2-2s-0.897-2-2-2-2 0.897-2 2 0.897 2 2 2zM21.5 13.5c0.551 0 1 0.448 1 1s-0.449 1-1 1-1-0.448-1-1 0.449-1 1-1zM22.823 22.075c-1.696 1.837-4.097 2.891-6.588 2.891-2.53 0-4.956-1.081-6.656-2.967-0.198-0.218-0.537-0.237-0.755-0.038-0.219 0.197-0.237 0.535-0.039 0.755 1.903 2.109 4.618 3.318 7.45 3.318 2.788 0 5.476-1.179 7.373-3.234 0.2-0.217 0.187-0.555-0.030-0.755s-0.555-0.188-0.755 0.030z"></path>
</symbol>
</defs>
</svg>
